#!OML:ASF \\sashay\E\Suitcase\Project 1\Capture day 1\Session 1\Male1.ASF
:FULLY-SPECIFIED
:DEGREES
801
root 0.290845 17.1209 26.6718 1.93666 3.41657 -7.04928
lowerback 10.8612 -0.458403 4.28836
upperback -1.02589 0.427834 6.44475
thorax -7.24051 0.183799 4.36351
lowerneck -21.2669 -0.913314 -2.30392
upperneck 18.4391 -0.0616455 -2.00788
head 9.32377 -0.430517 -0.327541
rclavicle 1.27222e-014 8.42847e-014
rhumerus -65.4267 -33.5887 -32.2067
rradius 11.0305
rwrist 10.2204
rhand -13.1592 10.0959
rfingers 7.12502
rthumb 12.9397 -19.4829
lclavicle 1.27222e-014 8.42847e-014
lhumerus -46.2331 5.83718 79.9973
lradius 30.272
lwrist -12.4999
lhand 6.64916 42.2687
lfingers 7.12502
lthumb 31.9417 69.4863
rfemur -11.7562 2.29812 32.2808
rtibia 17.1474
rfoot -8.11121 -15.5142
rtoes 26.7418
lfemur -11.4648 5.62563 -9.2167
ltibia 63.776
lfoot 6.23806 -16.0495
ltoes 6.68426
802
root 0.281173 17.1106 26.7686 1.66201 3.13218 -7.30937
lowerback 11.0202 -0.448415 4.42985
upperback -0.724837 0.454018 6.51774
thorax -7.00929 0.193011 4.35136
lowerneck -20.0004 -2.15571 -4.54138
upperneck 16.5826 -1.75048 0.652562
head 8.5071 -1.04944 0.732994
rclavicle 8.84592e-015 1.90833e-014
rhumerus -65.1935 -33.8308 -32.464
rradius 11.0486
rwrist 10.0776
rhand -13.5163 10.0644
rfingers 7.12502
rthumb 12.5954 -19.5359
lclavicle 8.84592e-015 1.90833e-014
lhumerus -46.1557 6.08954 79.8909
lradius 30.5929
lwrist -12.3876
lhand 6.81242 42.7162
lfingers 7.12502
lthumb 32.0971 69.9026
rfemur -11.2578 1.99665 32.6818
rtibia 17.4721
rfoot -8.51676 -15.0157
rtoes 26.1914
lfemur -12.0615 5.91043 -8.74191
ltibia 65.0105
lfoot 5.11215 -14.8196
ltoes 3.1714
803
root 0.281003 17.1178 26.8615 1.76204 2.65976 -6.99987
lowerback 10.7177 -0.375139 4.1399
upperback -0.419246 0.451543 6.37816
thorax -6.50874 0.199822 4.34836
lowerneck -20.3337 -2.17495 -4.45635
upperneck 16.4893 -1.77675 0.617452
head 8.53239 -1.05834 0.701531
rclavicle -3.15074e-014 3.49861e-014
rhumerus -65.7341 -35.3248 -30.6169
rradius 10.5794
rwrist 12.6628
rhand -13.8177 10.8257
rfingers 7.12502
rthumb 12.3049 -18.7923
lclavicle -3.15074e-014 3.49861e-014
lhumerus -45.6801 6.2158 79.8928
lradius 30.2437
lwrist -11.712
lhand 5.50305 42.5353
lfingers 7.12502
lthumb 30.8497 69.9653
rfemur -11.0286 1.87975 32.4019
rtibia 17.6395
rfoot -8.65835 -14.5042
rtoes 26.0158
lfemur -13.0251 6.38977 -9.0422
ltibia 65.9937
lfoot 4.50505 -13.7971
ltoes 4.26754
804
root 0.275455 17.1186 26.9625 1.96196 2.28347 -6.49222
lowerback 9.4413 -0.112704 3.46566
upperback 0.417824 0.554185 6.42266
thorax -4.90952 0.270585 4.71829
lowerneck -20.6208 -2.31133 -4.83856
upperneck 15.5655 -1.84453 0.662131
head 8.27448 -1.09815 0.768597
rclavicle -9.54166e-015 -1.90833e-014
rhumerus -65.5011 -37.1777 -29.5296
rradius 10.3974
rwrist 14.3903
rhand -13.864 9.41569
rfingers 7.12502
rthumb 12.2603 -20.2049
lclavicle -9.54166e-015 -1.90833e-014
lhumerus -44.4045 7.57329 79.8024
lradius 30.1333
lwrist -12.6264
lhand 5.23775 42.3748
lfingers 7.12502
lthumb 30.5967 69.8523
rfemur -10.8966 2.04732 31.8405
rtibia 17.8449
rfoot -9.28112 -14.1038
rtoes 27.276
lfemur -14.0735 6.66407 -9.6126
ltibia 66.9082
lfoot 3.61542 -12.5897
ltoes 2.42917
805
root 0.273761 17.1164 27.0616 1.82895 1.97103 -6.31675
lowerback 11.9215 0.128413 3.54473
upperback -1.44524 1.22051 6.34172
thorax -8.34921 0.599902 4.56545
lowerneck -18.5388 -2.58546 -5.74757
upperneck 16.5571 -2.15202 0.977577
head 8.27615 -1.2857 0.998002
rclavicle -1.36167e-014 3.81667e-014
rhumerus -66.4281 -33.213 -30.7961
rradius 10.8792
rwrist 11.5943
rhand -14.0453 10.0909
rfingers 7.12502
rthumb 12.0854 -19.5401
lclavicle -1.36167e-014 3.81667e-014
lhumerus -47.7542 6.58687 79.9569
lradius 30.6875
lwrist -11.7031
lhand 4.56839 43.0331
lfingers 7.12502
lthumb 29.9582 70.6279
rfemur -10.4221 1.5893 31.7191
rtibia 18.0931
rfoot -9.4342 -13.4348
rtoes 27.0735
lfemur -14.6998 6.74178 -9.78836
ltibia 67.6288
lfoot 2.93286 -11.1126
ltoes 5.58241
806
root 0.276263 17.1061 27.1498 1.81366 1.42722 -6.37405
lowerback 10.97 -0.0416725 3.35633
upperback -0.509126 0.814035 6.278
thorax -6.77196 0.402532 4.63232
lowerneck -19.186 -2.18071 -4.74338
upperneck 15.8391 -1.77593 0.660345
head 8.11779 -1.06659 0.771818
rclavicle 2.5842e-015 2.38542e-014
rhumerus -65.6113 -35.1647 -30.4944
rradius 10.4132
rwrist 13.7056
rhand -14.5787 10.066
rfingers 7.12502
rthumb 11.5711 -19.5945
lclavicle 2.5842e-015 2.38542e-014
lhumerus -46.4171 8.26438 78.9828
lradius 30.4119
lwrist -11.5608
lhand 4.17969 42.7234
lfingers 7.12502
lthumb 29.5872 70.3846
rfemur -10.15 2.75592 31.8061
rtibia 18.4458
rfoot -10.2619 -14.0811
rtoes 28.0119
lfemur -15.5091 7.06922 -9.70793
ltibia 68.3417
lfoot 2.16593 -10.6701
ltoes 1.78513
807
root 0.275404 17.0934 27.232 1.7771 1.10644 -6.32029
lowerback 9.85501 0.149608 3.35775
upperback 0.498634 0.908179 6.28079
thorax -5.07593 0.445319 4.58158
lowerneck -19.6663 -2.29504 -5.02303
upperneck 14.9866 -1.85566 0.806275
head 7.92039 -1.09447 0.853285
rclavicle 1.59028e-014 1.59028e-014
rhumerus -65.5239 -37.4237 -29.4238
rradius 10.3853
rwrist 15.4357
rhand -13.9316 9.31374
rfingers 7.12502
rthumb 12.1951 -20.3108
lclavicle 1.59028e-014 1.59028e-014
lhumerus -44.628 7.98618 79.6618
lradius 30.0954
lwrist -10.3451
lhand 3.3732 42.8361
lfingers 7.12502
lthumb 28.8171 70.6312
rfemur -9.95608 2.79756 31.8403
rtibia 18.7642
rfoot -10.3283 -14.0662
rtoes 27.7642
lfemur -16.332 7.15716 -9.78997
ltibia 68.8179
lfoot 1.64877 -10.2564
ltoes 8.72886
808
root 0.284866 17.0943 27.3221 1.74418 0.966283 -6.26932
lowerback 10.4872 0.214782 3.4341
upperback 0.0885806 1.08883 6.37123
thorax -5.87757 0.534599 4.62287
lowerneck -19.2038 -2.41486 -5.64966
upperneck 15.2225 -1.95536 1.23934
head 7.93528 -1.13887 1.09008
rclavicle 8.34896e-015 -2.22639e-014
rhumerus -64.7887 -35.8572 -30.9515
rradius 10.5646
rwrist 13.6226
rhand -14.8722 10.62
rfingers 7.12502
rthumb 11.288 -19.0562
lclavicle 8.34896e-015 -2.22639e-014
lhumerus -45.3571 8.47176 79.6837
lradius 30.21
lwrist -10.2614
lhand 2.36565 43.0617
lfingers 7.12502
lthumb 27.8542 71.0168
rfemur -9.55725 2.22097 31.789
rtibia 18.8241
rfoot -10.6592 -13.4463
rtoes 26.2533
lfemur -17.0317 6.96977 -9.95145
ltibia 69.1323
lfoot 1.22233 -9.99378
ltoes 7.03221
809
root 0.282582 17.0951 27.4044 1.72637 0.434864 -5.70664
lowerback 10.7412 0.291803 2.87292
upperback 0.0722081 1.11727 5.98636
thorax -6.04014 0.558441 4.52606
lowerneck -19.4364 -2.14978 -4.48107
upperneck 15.5143 -1.75381 0.45359
head 8.0463 -1.05716 0.661452
rclavicle 2.49475e-014 1.33583e-013
rhumerus -64.6173 -35.8375 -31.6041
rradius 10.6758
rwrist 13.7755
rhand -14.4578 10.1199
rfingers 7.12502
rthumb 11.6877 -19.5341
lclavicle 2.49475e-014 1.33583e-013
lhumerus -45.7304 8.77477 79.0641
lradius 30.8758
lwrist -9.4124
lhand 2.92341 44.0251
lfingers 7.12502
lthumb 28.3874 71.8925
rfemur -9.39145 2.491 31.2268
rtibia 19.2238
rfoot -10.8883 -13.2798
rtoes 26.3501
lfemur -17.6882 6.95458 -10.7292
ltibia 69.2489
lfoot 0.164499 -8.7723
ltoes 2.16639
810
root 0.289864 17.1028 27.5035 1.67613 0.255066 -6.05495
lowerback 10.8493 0.32343 3.44645
upperback -0.112954 1.25854 6.07941
thorax -6.29765 0.612056 4.28205
lowerneck -18.2758 -2.21743 -5.07905
upperneck 14.8681 -1.8194 0.809198
head 7.64352 -1.08217 0.878153
rclavicle 9.34288e-015 4.77083e-015
rhumerus -64.9618 -35.6408 -31.1664
rradius 10.6696
rwrist 14.1089
rhand -14.5346 10.0746
rfingers 7.12502
rthumb 11.6136 -19.5836
lclavicle 9.34288e-015 4.77083e-015
lhumerus -45.9107 8.39028 79.3997
lradius 30.3897
lwrist -8.33609
lhand 1.12277 42.7415
lfingers 7.12502
lthumb 26.6653 70.8833
rfemur -9.01026 1.99856 31.5901
rtibia 19.4361
rfoot -11.4566 -12.6637
rtoes 26.057
lfemur -18.5245 6.57648 -10.359
ltibia 69.2807
lfoot -0.465136 -8.60741
ltoes 5.51148
811
root 0.281553 17.0676 27.5639 1.66728 -0.0409928 -6.09134
lowerback 11.3758 0.400466 3.28301
upperback -0.254324 1.39382 6.13993
thorax -6.75975 0.684793 4.42459
lowerneck -18.404 -2.26969 -5.52616
upperneck 15.1864 -1.87517 1.40211
head 7.78302 -1.07938 1.13991
rclavicle 1.19271e-015 -4.13472e-014
rhumerus -64.6637 -35.3127 -31.7047
rradius 10.812
rwrist 13.5237
rhand -14.7231 10.3536
rfingers 7.12502
rthumb 11.4318 -19.3148
lclavicle 1.19271e-015 -4.13472e-014
lhumerus -46.2609 8.83342 79.289
lradius 30.8004
lwrist -7.97711
lhand -0.0346185 43.0196
lfingers 7.12502
lthumb 25.5572 71.3251
rfemur -8.98108 2.57844 31.6881
rtibia 19.9111
rfoot -11.9271 -12.878
rtoes 26.5532
lfemur -18.9785 6.40689 -10.3744
ltibia 68.975
lfoot -2.57507 -8.48998
ltoes -3.06085
812
root 0.286176 17.0981 27.6519 1.85397 -0.250199 -5.56788
lowerback 10.3506 0.503895 2.86863
upperback 0.33076 1.3561 6.02854
thorax -5.56093 0.675214 4.5294
lowerneck -18.5743 -2.26076 -5.98096
upperneck 14.8394 -1.79128 1.73261
head 7.70133 -1.02783 1.33221
rclavicle 2.98177e-015 2.70347e-014
rhumerus -63.4909 -35.6296 -33.1483
rradius 11.3395
rwrist 12.5523
rhand -14.4831 10.0431
rfingers 7.12502
rthumb 11.6633 -19.6123
lclavicle 2.98177e-015 2.70347e-014
lhumerus -45.2743 9.49026 79.386
lradius 31.0982
lwrist -8.07607
lhand 0.353483 43.288
lfingers 7.12502
lthumb 25.9289 71.5397
rfemur -8.83253 2.55909 31.096
rtibia 19.9883
rfoot -12.1404 -12.6864
rtoes 26.2992
lfemur -20.0833 5.64301 -11.0634
ltibia 68.7399
lfoot -3.01104 -7.78112
ltoes 3.81754
813
root 0.306121 17.0694 27.7216 1.93472 -0.683887 -5.32428
lowerback 10.5982 0.480865 2.85479
upperback 0.187158 1.33552 5.7915
thorax -5.84472 0.661889 4.28953
lowerneck -18.4425 -2.13034 -5.87548
upperneck 14.8893 -1.7326 2.16214
head 7.6946 -0.952238 1.46619
rclavicle 1.74931e-014 7.4743e-014
rhumerus -63.458 -35.5542 -33.4291
rradius 11.5814
rwrist 12.8252
rhand -13.8631 9.78391
rfingers 7.12502
rthumb 12.2611 -19.8367
lclavicle 1.74931e-014 7.4743e-014
lhumerus -45.442 9.40023 79.2678
lradius 31.2659
lwrist -6.834
lhand -0.462166 42.629
lfingers 7.12502
lthumb 25.1476 70.9926
rfemur -8.91849 2.54862 30.7627
rtibia 20.5564
rfoot -12.5801 -12.2043
rtoes 25.6666
lfemur -20.5105 5.33597 -11.5669
ltibia 68.1377
lfoot -5.05763 -6.51735
ltoes -8.44231
814
root 0.302362 17.0832 27.7964 1.77693 -0.794823 -5.85849
lowerback 10.1469 0.572727 3.4191
upperback 0.826928 1.45655 5.97772
thorax -4.91343 0.709223 4.1407
lowerneck -19.1508 -2.30054 -5.91257
upperneck 14.8023 -1.88032 2.02379
head 7.79208 -1.03369 1.40419
rclavicle -5.76476e-015 -1.90833e-014
rhumerus -62.6324 -36.3366 -33.9254
rradius 11.6238
rwrist 12.5719
rhand -14.028 10.5469
rfingers 7.12502
rthumb 12.1021 -19.0831
lclavicle -5.76476e-015 -1.90833e-014
lhumerus -44.2393 9.06257 79.9086
lradius 31.3736
lwrist -6.04693
lhand -1.19552 42.7919
lfingers 7.12502
lthumb 24.4448 71.2522
rfemur -8.38048 2.12755 31.4484
rtibia 20.5062
rfoot -12.5069 -12.1118
rtoes 22.9243
lfemur -21.2698 4.6229 -10.8952
ltibia 67.8768
lfoot -5.41987 -6.25947
ltoes -3.28936
815
root 0.306191 17.0737 27.8588 1.76073 -0.962513 -5.61691
lowerback 9.56402 0.604795 3.23137
upperback 1.48467 1.38214 5.84745
thorax -3.8937 0.675839 4.1135
lowerneck -19.4014 -2.28406 -6.10948
upperneck 14.1602 -1.84569 2.35909
head 7.62409 -0.985702 1.5492
rclavicle -8.94531e-015 -9.54166e-014
rhumerus -62.2569 -38.0529 -33.4685
rradius 11.4494
rwrist 13.9727
rhand -14.1275 10.7064
rfingers 7.12502
rthumb 12.0062 -18.9293
lclavicle -8.94531e-015 -9.54166e-014
lhumerus -43.0111 9.28484 80.0873
lradius 31.539
lwrist -5.72798
lhand -1.54535 42.6702
lfingers 7.12502
lthumb 24.1094 71.1754
rfemur -8.33442 1.61946 31.3005
rtibia 20.8785
rfoot -12.183 -12.0485
rtoes 18.4161
lfemur -21.7988 3.89149 -11.2542
ltibia 67.0638
lfoot -5.78006 -6.2151
ltoes 3.37563
